<?xml version="1.0" standalone="no"?>
<!DOCTYPE svg PUBLIC "-//W3C//DTD SVG 20010904//EN"
 "http://www.w3.org/TR/2001/REC-SVG-20010904/DTD/svg10.dtd">
<svg version="1.0" xmlns="http://www.w3.org/2000/svg"
 width="600.000000pt" height="600.000000pt" viewBox="0 0 600.000000 600.000000"
 preserveAspectRatio="xMidYMid meet">

<g transform="translate(0.000000,600.000000) scale(0.100000,-0.100000)"
fill="#000000" stroke="none">
<path d="M2950 5057 c-144 -60 -727 -405 -1047 -619 l-133 -88 0 92 c-1 335
-50 488 -155 488 -48 0 -89 -39 -129 -123 -42 -89 -55 -150 -106 -505 l-41
-284 -37 -31 c-138 -117 -364 -361 -485 -523 -95 -127 -218 -337 -224 -384 -5
-34 -1 -45 18 -67 35 -38 154 -113 237 -149 40 -17 75 -34 78 -36 2 -3 9 -43
15 -89 21 -175 46 -270 98 -374 52 -104 159 -256 238 -336 44 -46 45 -47 29
-71 -9 -14 -54 -60 -100 -102 -99 -90 -111 -115 -103 -225 4 -75 4 -77 -28
-113 -69 -76 -64 -203 11 -317 l36 -53 -17 -67 c-19 -73 -77 -351 -100 -476
-12 -61 -85 -582 -85 -602 0 -1 25 -3 55 -3 49 0 55 2 60 23 2 12 20 141 40
287 20 146 49 324 64 395 16 72 32 148 36 170 14 86 37 175 44 175 5 0 38 -23
75 -51 37 -27 100 -68 142 -91 56 -30 73 -44 70 -57 -7 -23 -24 -178 -31 -291
-3 -52 -17 -196 -31 -318 -13 -123 -24 -228 -24 -233 0 -5 24 -9 54 -9 l55 0
5 42 c13 95 45 419 51 508 3 52 10 138 16 191 l11 97 61 -19 c138 -42 421 -90
637 -109 193 -16 178 -9 173 -88 -4 -58 -2 -72 19 -102 34 -51 115 -88 210
-96 l76 -7 7 -35 c10 -52 39 -106 74 -135 39 -32 108 -47 222 -47 53 0 132 -9
192 -21 172 -36 318 -17 427 55 26 17 48 45 70 89 27 56 31 75 32 149 0 46 -2
93 -6 104 -5 18 0 23 36 34 73 21 150 66 220 127 66 57 148 154 148 175 0 15
48 60 160 150 201 161 402 376 468 502 l21 38 33 -46 c153 -216 246 -461 479
-1275 43 -150 80 -275 82 -278 3 -2 29 -3 59 -1 l55 3 -77 270 c-121 424 -218
740 -267 870 -91 240 -209 458 -307 563 -24 26 -53 70 -65 97 -12 28 -37 66
-56 85 l-34 35 36 35 c117 113 86 272 -60 311 -84 22 -83 17 -22 98 66 89 145
242 174 336 12 39 25 105 28 148 6 78 6 78 47 106 23 15 68 43 101 61 73 41
239 154 320 219 41 32 61 56 63 73 6 54 -44 122 -220 301 -182 184 -368 381
-380 402 -5 7 -15 96 -23 198 -18 220 -38 333 -71 407 -50 109 -98 150 -176
150 -59 0 -108 -27 -135 -75 -24 -44 -56 -168 -74 -290 -7 -44 -13 -81 -15
-83 -1 -2 -58 37 -126 86 -67 49 -188 130 -268 179 -80 50 -188 117 -240 150
-152 95 -440 250 -547 294 -128 52 -155 55 -223 26z m199 -156 c211 -91 769
-426 1046 -629 l155 -113 1 -147 c1 -180 10 -261 31 -276 23 -17 257 -12 347
8 84 18 101 28 101 65 0 48 14 54 46 18 30 -32 125 -146 221 -267 29 -36 86
-96 128 -133 41 -38 75 -72 75 -78 0 -24 -304 -153 -483 -205 -170 -49 -573
-124 -665 -124 -17 0 -36 30 -97 156 -43 85 -80 153 -83 149 -3 -3 28 -73 70
-155 41 -83 71 -153 66 -156 -5 -3 -172 -10 -371 -16 -266 -8 -585 -8 -1202 0
-891 13 -990 18 -1415 71 -129 16 -265 33 -302 37 -38 3 -68 10 -68 15 0 4 34
61 75 126 82 131 229 312 383 473 l101 105 1 -55 c0 -30 4 -61 9 -69 17 -26
255 -34 348 -12 28 7 58 20 66 29 11 12 18 66 27 197 6 99 14 205 18 235 l7
55 200 133 c232 154 466 297 790 482 178 101 236 130 256 126 14 -3 68 -23
118 -45z m-1499 -290 c12 -161 12 -502 0 -606 -6 -44 -13 -110 -16 -147 -6
-63 -8 -66 -37 -72 -38 -8 -125 -7 -154 0 -28 8 -29 27 -8 139 8 44 35 217 60
385 45 310 61 383 98 455 l20 40 14 -34 c8 -18 18 -90 23 -160z m2974 1 c14
-21 32 -67 40 -102 18 -77 64 -474 68 -580 l3 -74 -40 -9 c-22 -4 -83 -9 -135
-10 l-95 -2 0 235 c0 264 21 436 67 553 16 42 58 37 92 -11z m191 -1703 c-9
-130 -25 -193 -79 -304 -55 -114 -115 -197 -253 -355 -200 -228 -324 -324
-585 -450 -287 -138 -448 -170 -933 -186 -215 -6 -579 14 -685 40 -36 8 -111
24 -167 35 -116 23 -262 73 -372 128 -181 90 -415 300 -535 481 -81 122 -118
212 -142 347 -19 110 -23 280 -7 296 6 6 58 3 159 -10 82 -11 217 -24 299 -30
83 -7 179 -14 214 -17 63 -6 63 -6 35 -21 -46 -23 -93 -74 -130 -140 -29 -51
-35 -72 -37 -130 -2 -79 19 -126 70 -156 42 -24 130 -33 176 -18 48 16 152
118 177 173 47 108 46 177 -6 253 l-25 38 47 -7 c26 -3 295 -6 598 -6 l551 0
-48 -41 c-31 -27 -61 -67 -85 -113 -31 -61 -36 -80 -37 -141 0 -115 48 -171
158 -182 74 -8 130 18 190 89 85 100 116 214 83 302 -9 24 -24 50 -32 56 -7 7
-14 16 -14 20 0 4 147 10 328 13 198 4 376 12 452 21 166 21 401 61 525 90 55
13 104 24 109 25 5 1 5 -43 1 -100z m-3872 62 c14 -2 7 -31 -8 -31 -17 0 -75
27 -75 36 0 2 17 3 38 0 20 -3 40 -5 45 -5z m901 -151 c27 -26 24 -69 -8 -97
-36 -30 -70 -29 -95 3 -61 77 32 162 103 94z m1379 -1 c33 -15 49 -52 37 -83
-10 -28 -47 -56 -73 -56 -26 0 -67 45 -67 75 0 28 40 75 64 75 8 0 26 -5 39
-11z"/>
<path d="M2810 4700 c-8 -5 -15 -15 -15 -21 0 -7 -6 -14 -14 -17 -9 -3 -11 0
-6 8 6 9 3 9 -14 1 -25 -14 -28 -23 -3 -14 15 6 14 3 -3 -17 -12 -15 0 -9 32
15 49 37 64 55 46 55 -5 0 -15 -5 -23 -10z"/>
<path d="M3230 4650 c0 -5 19 -22 43 -38 54 -37 67 -44 67 -39 0 3 -22 19 -50
37 -27 18 -47 36 -44 41 3 5 0 9 -5 9 -6 0 -11 -4 -11 -10z"/>
<path d="M2603 4561 c-65 -49 -134 -104 -153 -121 -28 -26 -26 -25 13 5 26 20
96 73 155 117 123 92 117 88 109 88 -4 0 -59 -40 -124 -89z"/>
<path d="M3260 4646 c0 -2 7 -7 16 -10 8 -3 12 -2 9 4 -6 10 -25 14 -25 6z"/>
<path d="M2960 4574 c0 -32 5 -66 11 -74 7 -11 8 6 3 55 -8 88 -14 96 -14 19z"/>
<path d="M2658 4564 c-38 -30 -68 -57 -68 -60 0 -6 50 33 110 85 59 51 29 34
-42 -25z"/>
<path d="M3320 4616 c0 -2 7 -7 16 -10 8 -3 12 -2 9 4 -6 10 -25 14 -25 6z"/>
<path d="M3365 4593 c6 -6 28 -20 50 -32 22 -13 31 -15 20 -6 -22 18 -86 53
-70 38z"/>
<path d="M3350 4567 c0 -2 32 -25 70 -51 39 -25 70 -44 70 -41 0 2 -26 22 -57
43 -71 47 -83 54 -83 49z"/>
<path d="M3519 4493 c19 -15 106 -86 193 -157 87 -71 157 -131 154 -133 -3 -3
-45 26 -93 64 -48 38 -124 95 -168 127 -44 33 -86 63 -92 69 -7 5 -13 7 -13 4
0 -3 33 -29 73 -58 108 -80 467 -358 507 -393 23 -21 28 -23 15 -7 -53 63
-450 402 -566 482 -42 29 -43 29 -10 2z m411 -339 c23 -26 22 -25 -17 5 -24
18 -43 35 -43 37 0 10 36 -16 60 -42z"/>
<path d="M2430 4379 c-80 -66 -152 -127 -160 -137 -14 -15 -14 -15 5 -1 64 50
305 251 305 255 0 7 -1 6 -150 -117z"/>
<path d="M2952 4465 c0 -22 3 -65 8 -95 l7 -55 0 65 c1 36 -3 79 -7 95 -7 29
-8 28 -8 -10z"/>
<path d="M2282 4311 c-68 -54 -133 -108 -145 -120 -12 -13 44 30 126 94 126
101 157 127 145 124 -2 0 -58 -44 -126 -98z"/>
<path d="M2942 4350 c0 -25 3 -70 8 -100 l7 -55 1 50 c0 28 -3 73 -8 100 l-7
50 -1 -45z"/>
<path d="M2932 4210 c0 -36 3 -87 8 -115 l7 -50 1 60 c0 33 -3 85 -8 115 l-7
55 -1 -65z"/>
<path d="M2105 4119 c-77 -60 -149 -116 -160 -125 -11 -8 -13 -12 -5 -8 35 17
327 247 308 243 -2 0 -66 -50 -143 -110z"/>
<path d="M2045 4119 c-83 -71 -176 -161 -171 -166 8 -8 47 18 41 27 -3 5 25
35 62 68 38 33 84 74 103 91 57 50 30 34 -35 -20z"/>
<path d="M2916 3857 c-4 -137 -6 -250 -4 -253 11 -11 30 384 21 441 -8 50 -10
20 -17 -188z"/>
<path d="M4776 3551 c-12 -20 145 -208 227 -273 31 -24 16 -4 -53 77 -53 61
-111 131 -129 158 -37 51 -37 51 -45 38z m78 -96 l47 -60 -46 49 c-25 27 -51
58 -57 70 -14 28 0 13 56 -59z m81 -95 c10 -11 16 -20 13 -20 -3 0 -13 9 -23
20 -10 11 -16 20 -13 20 3 0 13 -9 23 -20z"/>
<path d="M4410 3446 c0 -10 130 -171 200 -246 35 -38 24 -20 -37 59 -98 127
-162 200 -163 187z"/>
<path d="M1063 3378 c-91 -95 -218 -258 -200 -258 2 0 33 33 68 73 35 39 56
66 46 58 -21 -16 -23 1 -2 19 8 7 15 9 15 4 0 -11 62 49 112 109 54 64 25 60
-39 -5z m29 5 c-17 -21 -47 -54 -68 -73 -46 -42 -21 -7 45 63 54 57 64 61 23
10z m-132 -146 c0 -2 -10 -12 -22 -23 l-23 -19 19 23 c18 21 26 27 26 19z"/>
<path d="M1463 3295 c-51 -65 -124 -178 -96 -150 14 14 126 164 147 198 33 50
9 28 -51 -48z"/>
<path d="M2141 3326 c-9 -11 -10 -20 -3 -33 9 -16 11 -15 17 10 9 33 2 43 -14
23z"/>
<path d="M3314 3284 c-4 -20 -2 -82 3 -137 l10 -102 1 138 c1 75 0 137 -3 137
-2 0 -7 -16 -11 -36z"/>
<path d="M2760 3308 c0 -2 -7 -41 -15 -88 -8 -47 -15 -110 -14 -140 l1 -55 13
75 c18 97 29 210 21 210 -3 0 -6 -1 -6 -2z"/>
<path d="M2080 3198 c-18 -40 -39 -91 -46 -113 -13 -37 -13 -38 2 -20 25 32
106 196 100 203 -3 3 -6 -1 -6 -9 0 -11 -2 -11 -9 -1 -5 9 -18 -10 -41 -60z
m21 5 c-11 -21 -20 -35 -21 -31 0 12 33 78 38 74 2 -2 -6 -21 -17 -43z"/>
<path d="M1320 2716 c-81 -17 -121 -43 -149 -100 -29 -58 -39 -144 -21 -186
18 -42 82 -97 129 -110 51 -13 98 -2 164 40 38 24 54 43 74 88 34 74 37 158 7
199 -45 60 -120 86 -204 69z"/>
<path d="M3644 2604 c-65 -34 -83 -51 -105 -99 -36 -77 -20 -164 41 -218 62
-56 138 -68 210 -31 75 37 150 150 150 223 0 38 -40 102 -79 128 -50 34 -150
32 -217 -3z"/>
<path d="M2343 2179 c-31 -32 2 -76 74 -100 47 -15 144 -6 185 18 27 16 33 25
33 54 l0 34 -45 -3 c-107 -6 -167 -5 -200 2 -24 5 -39 4 -47 -5z"/>
<path d="M4254 855 c-15 -23 -14 -33 35 -197 28 -95 71 -262 96 -370 25 -108
52 -216 58 -240 l13 -43 57 -3 c31 -2 57 -2 57 0 0 2 -38 154 -84 338 -83 330
-134 497 -163 525 -22 22 -51 18 -69 -10z"/>
</g>
</svg>
